# xmcd
#
# Track frame offsets: 
#        150
#        12735
#        26239
#        38858
#        48832
#        62834
#        76617
#        88564
#        102448
#        115100
#        125149
#        135889
#        147686
#        157663
#        171561
#        182800
#        195892
#        208250
#        220348
#        232345
#        243312
#        255488
#        268380
#        279228
#
# Disc length: 3889 seconds
#
# Revision: 1
# Processed by: cddbd v1.5.2PL0 Copyright (c) Steve Scherf et al.
# Submitted via: ExactAudioCopy v1.1
#
DISCID=620f2f18
DTITLE=Various Artist - The Complete Motown Singles Volume 6 [CD29
DTITLE=)
DYEAR=2006
DGENRE=R&B
TTITLE0=Jr. Walker and The All Stars - (I'm A) Road Runner (mono)
TTITLE1=Jr. Walker and The All Stars - Shoot Your Shot (mono)
TTITLE2=Shorty Long - Function At The Junction (mono)
TTITLE3=Shorty Long - Call On Me (mono)
TTITLE4=The Spinners - Truly Yours (mono)
TTITLE5=The Spinners - Where Is That Girl (mono)
TTITLE6=Stevie Wonder - Nothing's Too Good For My Baby (mono)
TTITLE7=Stevie Wonder - With A Child's Heart (mono)
TTITLE8=The Marvelettes - You're The One (mono)
TTITLE9=The Marvelettes - Paper Boy (mono)
TTITLE10=Tammi Terrell - Come On And See Me (mono)
TTITLE11=Tammi Terrell - Baby Don'tcha Worry (mono)
TTITLE12=The Mynah Birds - It's My Time (mono)
TTITLE13=The Mynah Birds - Go On And Cry (mono)
TTITLE14=Chris Clark - Do I Love You (Indeed I Do) (mono)
TTITLE15=The Supremes - Love Is Like An Itching In My Heart (mono)
TTITLE16=The Supremes - He's All I Got (mono)
TTITLE17=The Contours - Just A Little Misunderstanding (mono)
TTITLE18=The Contours - Determination (mono)
TTITLE19=The Isley Brothers - Take Some Time Out For Love (mono)
TTITLE20=The Isley Brothers - Who Could Ever Doubt My Love (mono)
TTITLE21=Marvin Gaye - Take This Heart Of Mine (1st pressing Lawrence 
TTITLE21=Horn mix) (mono)
TTITLE22=Marvin Gaye - Need Your Lovin' (Want You Back) (mono)
TTITLE23=Marvin Gaye - Take This Heart Of Mine (2nd pressing Harold Ta
TTITLE23=ylor mix) (mono)
EXTD=
EXTT0=
EXTT1=
EXTT2=
EXTT3=
EXTT4=
EXTT5=
EXTT6=
EXTT7=
EXTT8=
EXTT9=
EXTT10=
EXTT11=
EXTT12=
EXTT13=
EXTT14=
EXTT15=
EXTT16=
EXTT17=
EXTT18=
EXTT19=
EXTT20=
EXTT21=
EXTT22=
EXTT23=
PLAYORDER=
